<svg width="38" height="32" viewBox="0 0 38 32" fill="none" xmlns="http://www.w3.org/2000/svg">
<g id="Component 1" clip-path="url(#clip0_2175_1152)">
<path id="Vector" d="M19.1864 30.9364C26.8184 30.9364 33.0052 24.1317 33.0052 15.7378C33.0052 7.3438 26.8184 0.539139 19.1864 0.539139C11.5546 0.539139 5.36768 7.3438 5.36768 15.7378C5.36768 24.1317 11.5546 30.9364 19.1864 30.9364Z" fill="#FFDCA4"/>
<g id="Mask group">
<mask id="mask0_2175_1152" style="mask-type:luminance" maskUnits="userSpaceOnUse" x="5" y="0" width="29" height="31">
<g id="Group">
<path id="Vector_2" d="M19.1864 30.9364C26.8184 30.9364 33.0052 24.1317 33.0052 15.7378C33.0052 7.3438 26.8184 0.539139 19.1864 0.539139C11.5546 0.539139 5.36768 7.3438 5.36768 15.7378C5.36768 24.1317 11.5546 30.9364 19.1864 30.9364Z" fill="white"/>
</g>
</mask>
<g mask="url(#mask0_2175_1152)">
<g id="Group_2">
<path id="Vector_3" d="M19.452 5.91864C23.4023 5.91864 26.6047 2.11041 26.6047 -2.58727C26.6047 -7.28496 23.4023 -11.0931 19.452 -11.0931C15.5017 -11.0931 12.2993 -7.28496 12.2993 -2.58727C12.2993 2.11041 15.5017 5.91864 19.452 5.91864Z" fill="white"/>
<path id="Vector_4" d="M6.32652 12.638C10.2769 12.638 13.4793 8.82976 13.4793 4.13207C13.4793 -0.56561 10.2769 -4.37384 6.32652 -4.37384C2.3762 -4.37384 -0.826172 -0.56561 -0.826172 4.13207C-0.826172 8.82976 2.3762 12.638 6.32652 12.638Z" fill="white"/>
<path id="Vector_5" d="M32.0506 12.638C36.001 12.638 39.2033 8.82976 39.2033 4.13207C39.2033 -0.56561 36.001 -4.37384 32.0506 -4.37384C28.1003 -4.37384 24.8979 -0.56561 24.8979 4.13207C24.8979 8.82976 28.1003 12.638 32.0506 12.638Z" fill="white"/>
</g>
</g>
</g>
<path id="Vector_6" d="M19.1864 30.9364C26.8184 30.9364 33.0052 24.1317 33.0052 15.7378C33.0052 7.3438 26.8184 0.539139 19.1864 0.539139C11.5546 0.539139 5.36768 7.3438 5.36768 15.7378C5.36768 24.1317 11.5546 30.9364 19.1864 30.9364Z" stroke="#202020" stroke-width="0.999911" stroke-miterlimit="10"/>
<path id="Vector_7" d="M8.09406 21.5506C7.46078 21.9439 6.72752 22.1706 5.94759 22.1706C3.58113 22.1706 1.66797 20.1174 1.66797 17.591C1.66797 15.0645 3.5878 13.0114 5.94759 13.0114C6.54087 13.0114 7.10082 13.138 7.6141 13.3713" fill="#FFDCA4"/>
<path id="Vector_8" d="M8.09406 21.5506C7.46078 21.9439 6.72752 22.1706 5.94759 22.1706C3.58113 22.1706 1.66797 20.1174 1.66797 17.591C1.66797 15.0645 3.5878 13.0114 5.94759 13.0114C6.54087 13.0114 7.10082 13.138 7.6141 13.3713" stroke="#202020" stroke-width="0.999911" stroke-linecap="round" stroke-linejoin="round"/>
<path id="Vector_9" d="M4.88135 16.331L6.96116 18.0375" stroke="#202020" stroke-width="0.999911" stroke-linecap="round" stroke-linejoin="round"/>
<path id="Vector_10" d="M30.2383 21.5506C30.8716 21.9439 31.6048 22.1706 32.3848 22.1706C34.7512 22.1706 36.6644 20.1174 36.6644 17.591C36.6644 15.0579 34.7445 13.0114 32.3848 13.0114C31.7915 13.0114 31.2315 13.138 30.7182 13.3713" fill="#FFDCA4"/>
<path id="Vector_11" d="M30.2383 21.5506C30.8716 21.9439 31.6048 22.1706 32.3848 22.1706C34.7512 22.1706 36.6644 20.1174 36.6644 17.591C36.6644 15.0579 34.7445 13.0114 32.3848 13.0114C31.7915 13.0114 31.2315 13.138 30.7182 13.3713" stroke="#202020" stroke-width="0.999911" stroke-linecap="round" stroke-linejoin="round"/>
<path id="Vector_12" d="M33.4519 16.331L31.3721 18.0375" stroke="#202020" stroke-width="0.999911" stroke-linecap="round" stroke-linejoin="round"/>
<path id="Vector_13" d="M16.2941 19.5574C16.9568 19.5574 17.494 18.6769 17.494 17.5909C17.494 16.5048 16.9568 15.6244 16.2941 15.6244C15.6314 15.6244 15.0942 16.5048 15.0942 17.5909C15.0942 18.6769 15.6314 19.5574 16.2941 19.5574Z" fill="#202020"/>
<path id="Vector_14" d="M22.0866 19.5574C22.7493 19.5574 23.2865 18.6769 23.2865 17.5909C23.2865 16.5048 22.7493 15.6244 22.0866 15.6244C21.424 15.6244 20.8867 16.5048 20.8867 17.5909C20.8867 18.6769 21.424 19.5574 22.0866 19.5574Z" fill="#202020"/>
<path id="Vector_15" d="M15.1131 22.9772C16.3649 22.9772 17.3796 21.9624 17.3796 20.7107C17.3796 19.459 16.3649 18.4442 15.1131 18.4442C13.8614 18.4442 12.8467 19.459 12.8467 20.7107C12.8467 21.9624 13.8614 22.9772 15.1131 22.9772Z" fill="#FFDCA4" stroke="#202020" stroke-width="0.999911" stroke-miterlimit="10"/>
<path id="Vector_16" d="M23.2123 22.9772C24.464 22.9772 25.4787 21.9624 25.4787 20.7107C25.4787 19.459 24.464 18.4442 23.2123 18.4442C21.9605 18.4442 20.9458 19.459 20.9458 20.7107C20.9458 21.9624 21.9605 22.9772 23.2123 22.9772Z" fill="#FFDCA4" stroke="#202020" stroke-width="0.999911" stroke-miterlimit="10"/>
<path id="Vector_17" d="M17.3794 20.7107H20.9924" stroke="#202020" stroke-width="0.999911" stroke-miterlimit="10"/>
<path id="Vector_18" d="M16.8936 9.05173H21.4798" stroke="#202020" stroke-width="0.999911" stroke-linecap="round" stroke-linejoin="round"/>
<path id="Vector_19" d="M16.8936 11.7915H21.4798" stroke="#202020" stroke-width="0.999911" stroke-linecap="round" stroke-linejoin="round"/>
</g>
<defs>
<clipPath id="clip0_2175_1152">
<rect width="37.33" height="31.9971" fill="white" transform="translate(0.334961 0.0014267)"/>
</clipPath>
</defs>
</svg>
