<svg width="38" height="32" viewBox="0 0 38 32" fill="none" xmlns="http://www.w3.org/2000/svg">
<g id="Component 1">
<path id="Vector" d="M31.6118 28.6812C31.4479 28.6812 31.28 28.6655 31.1083 28.6304C26.627 27.7365 22.6257 26.5381 19.1905 25.0977C15.7554 26.5381 11.7541 27.7365 7.27282 28.6304C5.89484 28.9036 4.54809 28.0098 4.27484 26.6278C3.99768 25.2459 4.89552 23.9031 6.2774 23.626C8.70935 23.1419 10.993 22.5603 13.0931 21.9005C8.15895 18.6606 5.41079 14.714 5.41079 10.4669C5.41079 5.79816 9.21292 1.99604 13.8855 1.99604C15.8608 1.99604 17.7189 2.66747 19.1905 3.85416C20.6622 2.67137 22.5204 1.99604 24.4956 1.99604C29.1682 1.99604 32.9665 5.79816 32.9665 10.4669C32.9665 14.714 30.2183 18.6567 25.292 21.9005C27.392 22.5603 29.6757 23.1419 32.1076 23.626C33.4895 23.9031 34.3834 25.2459 34.1102 26.6278C33.8682 27.8419 32.8025 28.6773 31.6118 28.6773V28.6812ZM13.8855 7.09806C12.0235 7.09806 10.5128 8.61267 10.5128 10.4708C10.5128 13.699 13.7411 16.9274 19.1905 19.5389C24.64 16.9274 27.8684 13.699 27.8684 10.4708C27.8684 8.61267 26.3537 7.09806 24.4956 7.09806C23.2074 7.09806 22.048 7.81633 21.4703 8.97183C21.037 9.83842 20.1547 10.3849 19.1866 10.3849C18.2185 10.3849 17.3363 9.83842 16.903 8.97183C16.3253 7.81633 15.1659 7.09806 13.8778 7.09806H13.8855Z" fill="#FF818B"/>
<path id="Vector_2" d="M19.4892 19.0978C24.642 16.5331 27.7375 13.4102 27.7375 10.3615C27.7375 8.57365 26.2815 7.1176 24.4897 7.1176C23.2483 7.1176 22.1358 7.80854 21.5815 8.92107C21.1287 9.83059 20.1996 10.4044 19.1847 10.4044C18.1697 10.4044 17.2407 9.83059 16.7878 8.92107C16.2336 7.80854 15.1171 7.1176 13.8796 7.1176C12.0918 7.1176 10.6357 8.57365 10.6357 10.3615" stroke="#202020" stroke-width="0.999911" stroke-miterlimit="10" stroke-linecap="round"/>
<path id="Vector_3" d="M19.1461 25.1601C15.6835 26.5927 11.6862 27.7756 7.29855 28.6499C7.12288 28.6851 6.94332 28.7006 6.77155 28.7006C5.52239 28.7006 4.40206 27.8185 4.14832 26.5459C3.85946 25.0977 4.80023 23.6846 6.24847 23.3957C8.45402 22.9546 10.5464 22.4276 12.4943 21.8303" stroke="#202020" stroke-width="0.999911" stroke-miterlimit="10" stroke-linecap="round"/>
<path id="Vector_4" d="M5.28418 10.3654C5.28418 5.62247 9.14095 1.76571 13.8838 1.76571C15.8552 1.76571 17.7094 2.42541 19.1888 3.58869C20.6723 2.42541 22.5226 1.76571 24.4939 1.76571C29.2367 1.76571 33.0936 5.62247 33.0936 10.3654C33.0936 13.297 31.7937 17.6261 25.6728 21.7366" stroke="#202020" stroke-width="0.999911" stroke-miterlimit="10" stroke-linecap="round" stroke-linejoin="round"/>
<path id="Vector_5" d="M10.636 10.3653C10.636 15.5142 19.4738 20.8739 32.1294 23.4033C33.5776 23.6923 34.5183 25.1014 34.2295 26.5536C33.9758 27.8261 32.8554 28.7084 31.6062 28.7084C31.4306 28.7084 31.255 28.6927 31.0792 28.6576C23.7756 27.1977 17.5493 24.8946 13.0758 21.9903C6.63483 17.7978 5.28418 13.3554 5.28418 10.3653" stroke="#202020" stroke-width="0.999911" stroke-miterlimit="10" stroke-linecap="round"/>
</g>
</svg>
