<svg width="38" height="32" viewBox="0 0 38 32" fill="none" xmlns="http://www.w3.org/2000/svg">
<g id="Component 1" clip-path="url(#clip0_2175_1158)">
<path id="Vector" d="M12.5621 10.4583C16.1885 10.4583 19.1282 13.398 19.1282 17.0244V25.7836H5.99609V17.0244C5.99609 13.398 8.93583 10.4583 12.5621 10.4583Z" fill="#91D1F9" stroke="#202020" stroke-width="0.999911" stroke-linecap="round" stroke-linejoin="round"/>
<path id="Vector_2" d="M12.5622 13.2447C15.7025 13.2447 18.2483 10.6989 18.2483 7.55851C18.2483 4.41813 15.7025 1.87235 12.5622 1.87235C9.42172 1.87235 6.87598 4.41813 6.87598 7.55851C6.87598 10.6989 9.42172 13.2447 12.5622 13.2447Z" fill="#FFDCA4" stroke="#202020" stroke-width="0.999911" stroke-miterlimit="10"/>
<path id="Vector_3" d="M11.0228 8.75175C11.3761 8.75175 11.6627 8.28318 11.6627 7.70517C11.6627 7.12717 11.3761 6.6586 11.0228 6.6586C10.6693 6.6586 10.3828 7.12717 10.3828 7.70517C10.3828 8.28318 10.6693 8.75175 11.0228 8.75175Z" fill="#202020"/>
<path id="Vector_4" d="M14.096 8.75175C14.4494 8.75175 14.7359 8.28318 14.7359 7.70517C14.7359 7.12717 14.4494 6.6586 14.096 6.6586C13.7425 6.6586 13.4561 7.12717 13.4561 7.70517C13.4561 8.28318 13.7425 8.75175 14.096 8.75175Z" fill="#202020"/>
<path id="Vector_5" d="M25.6945 10.4583C29.3208 10.4583 32.2606 13.398 32.2606 17.0244V25.7836H19.1284V17.0244C19.1284 13.398 22.0682 10.4583 25.6945 10.4583Z" fill="#91D1F9" stroke="#202020" stroke-width="0.999911" stroke-linecap="round" stroke-linejoin="round"/>
<path id="Vector_6" d="M25.6949 13.2447C28.8353 13.2447 31.3811 10.6989 31.3811 7.55851C31.3811 4.41813 28.8353 1.87235 25.6949 1.87235C22.5545 1.87235 20.0088 4.41813 20.0088 7.55851C20.0088 10.6989 22.5545 13.2447 25.6949 13.2447Z" fill="#FFDCA4" stroke="#202020" stroke-width="0.999911" stroke-miterlimit="10"/>
<path id="Vector_7" d="M24.1541 8.75175C24.5075 8.75175 24.794 8.28318 24.794 7.70517C24.794 7.12717 24.5075 6.6586 24.1541 6.6586C23.8007 6.6586 23.5142 7.12717 23.5142 7.70517C23.5142 8.28318 23.8007 8.75175 24.1541 8.75175Z" fill="#202020"/>
<path id="Vector_8" d="M27.2278 8.75175C27.5813 8.75175 27.8678 8.28318 27.8678 7.70517C27.8678 7.12717 27.5813 6.6586 27.2278 6.6586C26.8744 6.6586 26.5879 7.12717 26.5879 7.70517C26.5879 8.28318 26.8744 8.75175 27.2278 8.75175Z" fill="#202020"/>
<path id="Vector_9" d="M3.79492 22.357H33.0523C35.0921 22.357 36.752 24.0169 36.752 26.0567C36.752 28.0965 35.0921 29.7564 33.0523 29.7564H3.79492V22.357Z" fill="#FFDCA4" stroke="#202020" stroke-width="0.999911" stroke-linecap="round" stroke-linejoin="round"/>
<path id="Vector_10" d="M5.5542 26.1701V20.3506H21.8861C23.4926 20.3506 24.7992 21.6505 24.7992 23.2637C24.7992 24.8702 23.4993 26.1768 21.8861 26.1768H15.0334" fill="#FFDCA4"/>
<path id="Vector_11" d="M5.5542 26.1701V20.3506H21.8861C23.4926 20.3506 24.7992 21.6505 24.7992 23.2637C24.7992 24.8702 23.4993 26.1768 21.8861 26.1768H15.0334" stroke="#202020" stroke-width="0.999911" stroke-linecap="round" stroke-linejoin="round"/>
<path id="Vector_12" d="M6.74766 20.3507H1.50146V29.7499H6.74766V20.3507Z" fill="white" stroke="#202020" stroke-width="0.999911" stroke-linecap="round" stroke-linejoin="round"/>
</g>
<defs>
<clipPath id="clip0_2175_1158">
<rect width="37.33" height="31.9971" fill="white" transform="translate(0.334961 0.0014267)"/>
</clipPath>
</defs>
</svg>
