<svg width="32" height="32" viewBox="0 0 32 32" fill="none" xmlns="http://www.w3.org/2000/svg">
<g clip-path="url(#clip0_2175_1128)">
<path d="M4.11361 15.5648C6.66215 21.3095 11.1813 24.8816 14.2034 23.5377C17.2254 22.1938 17.6084 16.4491 15.0598 10.7044C12.5113 4.95975 7.26102 -0.450693 4.23894 0.886248C1.2169 2.23016 1.57202 9.81311 4.12057 15.5578L4.11361 15.5648Z" fill="#FFC878" stroke="#202020" stroke-width="1.02128" stroke-linecap="round" stroke-linejoin="round"/>
<path d="M27.8862 15.5648C25.3376 21.3095 20.8185 24.8816 17.7965 23.5377C14.7744 22.1938 14.3914 16.4491 16.94 10.7044C19.4885 4.95975 24.7388 -0.450693 27.7609 0.886248C30.7829 2.23016 30.4278 9.81311 27.8793 15.5578L27.8862 15.5648Z" fill="#FFC878" stroke="#202020" stroke-width="1.02128" stroke-linecap="round" stroke-linejoin="round"/>
<path d="M15.9998 31.3505C24.4603 31.3505 31.319 25.1871 31.319 17.5841C31.319 9.98121 24.4603 3.81782 15.9998 3.81782C7.53929 3.81782 0.680664 9.98121 0.680664 17.5841C0.680664 25.1871 7.53929 31.3505 15.9998 31.3505Z" fill="#FFC878" stroke="#202020" stroke-width="1.02128" stroke-linecap="round" stroke-linejoin="round"/>
<path d="M26.4243 16.9992H28.6665" stroke="#202020" stroke-width="1.02128" stroke-linecap="round" stroke-linejoin="round"/>
<path d="M26.3267 20.5992L28.0327 21.0588" stroke="#202020" stroke-width="1.02128" stroke-linecap="round" stroke-linejoin="round"/>
<path d="M5.57616 16.9992H3.33398" stroke="#202020" stroke-width="1.02128" stroke-linecap="round" stroke-linejoin="round"/>
<path d="M5.67377 20.5992L3.96777 21.0588" stroke="#202020" stroke-width="1.02128" stroke-linecap="round" stroke-linejoin="round"/>
<path d="M9.67028 17.048C10.2702 17.048 10.7565 16.2499 10.7565 15.2654C10.7565 14.2809 10.2702 13.4828 9.67028 13.4828C9.07032 13.4828 8.58398 14.2809 8.58398 15.2654C8.58398 16.2499 9.07032 17.048 9.67028 17.048Z" fill="#202020"/>
<path d="M22.3294 17.048C22.9294 17.048 23.4157 16.2499 23.4157 15.2654C23.4157 14.2809 22.9294 13.4828 22.3294 13.4828C21.7295 13.4828 21.2432 14.2809 21.2432 15.2654C21.2432 16.2499 21.7295 17.048 22.3294 17.048Z" fill="#202020"/>
<path d="M15.9997 15.4742C15.8395 15.0634 15.5122 14.7849 15.1362 14.7849C14.607 14.7849 14.1753 15.342 14.1753 16.0313C14.1753 16.9992 14.8716 17.8766 15.9997 18.5311C17.1347 17.8766 17.824 16.9992 17.824 16.0313C17.824 15.342 17.3923 14.7849 16.8631 14.7849C16.4871 14.7849 16.1598 15.0704 15.9997 15.4742Z" fill="#202020"/>
<path d="M13.2007 20.8569C13.2007 20.8569 15.3245 19.3667 17.0026 16.8251" stroke="#202020" stroke-width="1.02128" stroke-linecap="round" stroke-linejoin="round"/>
<path d="M18.799 20.8569C18.799 20.8569 16.6752 19.3667 14.9971 16.8251" stroke="#202020" stroke-width="1.02128" stroke-linecap="round" stroke-linejoin="round"/>
</g>
<defs>
<clipPath id="clip0_2175_1128">
<rect width="32" height="32" fill="white"/>
</clipPath>
</defs>
</svg>
