<svg width="32" height="32" viewBox="0 0 32 32" fill="none" xmlns="http://www.w3.org/2000/svg">
<g id="Component 1" clip-path="url(#clip0_2175_1146)">
<path id="Vector" d="M15.6665 30.7511C23.9508 30.7511 30.6665 24.0354 30.6665 15.7511C30.6665 7.46682 23.9508 0.751087 15.6665 0.751087C7.38223 0.751087 0.666504 7.46682 0.666504 15.7511C0.666504 24.0354 7.38223 30.7511 15.6665 30.7511Z" fill="#91D1F9"/>
<g id="Mask group">
<mask id="mask0_2175_1146" style="mask-type:luminance" maskUnits="userSpaceOnUse" x="0" y="0" width="31" height="31">
<g id="Group">
<path id="Vector_2" d="M15.6665 30.7511C23.9508 30.7511 30.6665 24.0354 30.6665 15.7511C30.6665 7.46682 23.9508 0.751087 15.6665 0.751087C7.38223 0.751087 0.666504 7.46682 0.666504 15.7511C0.666504 24.0354 7.38223 30.7511 15.6665 30.7511Z" fill="white"/>
</g>
</mask>
<g mask="url(#mask0_2175_1146)">
<g id="Group_2">
<path id="Vector_3" d="M32.9203 29.9378C32.9203 29.9378 27.627 27.3911 24.967 23.1511C22.3137 18.9178 24.647 18.1978 24.7603 15.5378C24.8737 12.8778 21.2937 10.7111 21.1003 9.01778C20.907 7.32445 21.227 1.61779 24.0537 0.797789C26.8803 -0.0222104 37.2203 4.95112 37.2203 4.95112L32.9137 29.9311L32.9203 29.9378Z" fill="#D6EF6A" stroke="#202020" stroke-linecap="round" stroke-linejoin="round"/>
<path id="Vector_4" d="M18.0736 32.4978C18.0736 32.4978 18.8203 25.8244 15.9337 23.1978C13.047 20.5711 12.1403 22.4778 9.72698 20.3311C7.31367 18.1911 8.73367 15.4644 0.0136719 15.8178L1.01367 30.4044L18.067 32.4978H18.0736Z" fill="#D6EF6A" stroke="#202020" stroke-linecap="round" stroke-linejoin="round"/>
<path id="Vector_5" d="M13.3801 0.371094C13.3801 0.371094 15.2401 4.22443 12.2934 5.96443C9.34673 7.70443 6.58673 12.4778 0.533394 10.1644L-1.2666 4.99776L13.3801 0.371094Z" fill="#D6EF6A" stroke="#202020" stroke-linecap="round" stroke-linejoin="round"/>
<path id="Vector_6" d="M16.4929 13.4511C16.5063 13.0511 16.4929 12.6178 16.2463 12.2978C15.9996 11.9644 15.5663 11.8244 15.1596 11.7378C14.1063 11.5111 13.0063 11.5111 11.9529 11.7378C11.7796 11.7778 11.5996 11.8178 11.4463 11.9178C10.6529 12.4111 10.1529 14.8778 10.2529 15.7711C10.3596 16.7111 10.9596 17.2244 11.8529 17.4311C14.6929 18.0911 16.3996 16.0644 16.4929 13.4578V13.4511Z" fill="#D6EF6A" stroke="#202020" stroke-linecap="round" stroke-linejoin="round"/>
</g>
</g>
</g>
<path id="Vector_7" d="M15.6665 30.7511C23.9508 30.7511 30.6665 24.0354 30.6665 15.7511C30.6665 7.46682 23.9508 0.751087 15.6665 0.751087C7.38223 0.751087 0.666504 7.46682 0.666504 15.7511C0.666504 24.0354 7.38223 30.7511 15.6665 30.7511Z" stroke="#202020" stroke-miterlimit="10"/>
</g>
<defs>
<clipPath id="clip0_2175_1146">
<rect width="32" height="32" fill="white"/>
</clipPath>
</defs>
</svg>
