<svg width="38" height="32" viewBox="0 0 38 32" fill="none" xmlns="http://www.w3.org/2000/svg">
<g id="Component 1" clip-path="url(#clip0_2175_1122)">
<path id="Vector" d="M34.1033 25.7812C34.8801 24.2349 34.1041 22.2754 32.3704 21.4046C30.6366 20.5337 28.6015 21.0812 27.8249 22.6275C27.0482 24.1738 27.8241 26.1332 29.5579 27.0041C31.2916 27.8749 33.3267 27.3273 34.1033 25.7812Z" fill="#202020"/>
<path id="Vector_2" d="M36.2255 28.6902C36.8469 27.4533 36.2251 25.8852 34.8368 25.1878C33.4485 24.4904 31.8193 24.9279 31.198 26.165C30.5766 27.4019 31.1984 28.97 32.5868 29.6674C33.9751 30.3647 35.6042 29.9272 36.2255 28.6902Z" fill="#202020"/>
<path id="Vector_3" d="M18.9215 29.2966C27.0467 29.2966 33.6335 23.1575 33.6335 15.5845C33.6335 8.01147 27.0467 1.87235 18.9215 1.87235C10.7963 1.87235 4.20947 8.01147 4.20947 15.5845C4.20947 23.1575 10.7963 29.2966 18.9215 29.2966Z" fill="#FFDCA4" stroke="#202020" stroke-width="0.999911" stroke-miterlimit="10"/>
<path id="Vector_4" d="M6.63574 20.8373C6.06912 21.1906 5.40251 21.3973 4.69591 21.3973C2.56277 21.3973 0.82959 19.5441 0.82959 17.2643C0.82959 14.9845 2.5561 13.1314 4.69591 13.1314C5.2292 13.1314 5.73582 13.2447 6.20244 13.458" fill="#FFDCA4"/>
<path id="Vector_5" d="M6.63574 20.8373C6.06912 21.1906 5.40251 21.3973 4.69591 21.3973C2.56277 21.3973 0.82959 19.5441 0.82959 17.2643C0.82959 14.9845 2.5561 13.1314 4.69591 13.1314C5.2292 13.1314 5.73582 13.2447 6.20244 13.458" stroke="#202020" stroke-width="0.999911" stroke-linecap="round" stroke-linejoin="round"/>
<path id="Vector_6" d="M3.73633 16.1177L5.61616 17.6642" stroke="#202020" stroke-width="0.999911" stroke-linecap="round" stroke-linejoin="round"/>
<path id="Vector_7" d="M31.207 20.8373C31.7736 21.1906 32.4403 21.3973 33.1469 21.3973C35.28 21.3973 37.0132 19.5441 37.0132 17.2643C37.0132 14.9845 35.2867 13.1314 33.1469 13.1314C32.6136 13.1314 32.107 13.2447 31.6403 13.458" fill="#FFDCA4"/>
<path id="Vector_8" d="M31.207 20.8373C31.7736 21.1906 32.4403 21.3973 33.1469 21.3973C35.28 21.3973 37.0132 19.5441 37.0132 17.2643C37.0132 14.9845 35.2867 13.1314 33.1469 13.1314C32.6136 13.1314 32.107 13.2447 31.6403 13.458" stroke="#202020" stroke-width="0.999911" stroke-linecap="round" stroke-linejoin="round"/>
<path id="Vector_9" d="M34.1069 16.1177L32.2271 17.6642" stroke="#202020" stroke-width="0.999911" stroke-linecap="round" stroke-linejoin="round"/>
<path id="Vector_10" d="M16.3073 20.0574C16.9074 20.0574 17.3938 19.2635 17.3938 18.2842C17.3938 17.3049 16.9074 16.5111 16.3073 16.5111C15.7072 16.5111 15.2207 17.3049 15.2207 18.2842C15.2207 19.2635 15.7072 20.0574 16.3073 20.0574Z" fill="#202020"/>
<path id="Vector_11" d="M21.5333 20.0574C22.1335 20.0574 22.6199 19.2635 22.6199 18.2842C22.6199 17.3049 22.1335 16.5111 21.5333 16.5111C20.9333 16.5111 20.4468 17.3049 20.4468 18.2842C20.4468 19.2635 20.9333 20.0574 21.5333 20.0574Z" fill="#202020"/>
<g id="Mask group">
<mask id="mask0_2175_1122" style="mask-type:luminance" maskUnits="userSpaceOnUse" x="4" y="2" width="30" height="27">
<g id="Group">
<path id="Vector_12" d="M18.9202 28.8567C26.7878 28.8567 33.1656 22.9146 33.1656 15.5846C33.1656 8.25457 26.7878 2.31242 18.9202 2.31242C11.0527 2.31242 4.6748 8.25457 4.6748 15.5846C4.6748 22.9146 11.0527 28.8567 18.9202 28.8567Z" fill="white"/>
</g>
</mask>
<g mask="url(#mask0_2175_1122)">
<g id="Group_2">
<path id="Vector_13" d="M12.3012 -0.17406C10.8546 3.88558 14.741 9.65843 20.9871 12.7182C27.2332 15.7779 33.4726 14.958 34.9192 10.8983C36.3657 6.83865 32.4794 1.06583 26.2333 -1.9939C19.9872 -5.05362 13.7544 -4.24036 12.3012 -0.17406Z" fill="#202020"/>
</g>
</g>
</g>
<path id="Vector_14" d="M33.0197 11.6648C31.2065 6.00532 25.5871 1.87235 18.921 1.87235C12.2549 1.87235 6.63544 6.00532 4.82227 11.6648H33.0131H33.0197Z" fill="#FFA26E" stroke="#202020" stroke-width="0.999911" stroke-linecap="round" stroke-linejoin="round"/>
<path id="Vector_15" d="M14.7213 14.5646C21.2708 14.5646 26.5801 13.4872 26.5801 12.1581C26.5801 10.8291 21.2708 9.75167 14.7213 9.75167C8.17173 9.75167 2.8623 10.8291 2.8623 12.1581C2.8623 13.4872 8.17173 14.5646 14.7213 14.5646Z" fill="#FFA26E" stroke="#202020" stroke-width="0.999911" stroke-linecap="round" stroke-linejoin="round"/>
</g>
<defs>
<clipPath id="clip0_2175_1122">
<rect width="37.33" height="31.9971" fill="white" transform="translate(0.334961 0.0014267)"/>
</clipPath>
</defs>
</svg>
