<svg width="49" height="48" viewBox="0 0 49 48" fill="none" xmlns="http://www.w3.org/2000/svg">
<g id="Component 1" clip-path="url(#clip0_2037_431)">
<path id="Vector" d="M19.339 3.9191C19.4709 4.05096 19.6498 4.12503 19.8362 4.12502C20.0227 4.12501 20.2016 4.05092 20.3334 3.91905C20.4653 3.78718 20.5394 3.60833 20.5394 3.42184C20.5393 3.23536 20.4653 3.05651 20.3334 2.92465L18.411 1.00223C18.2791 0.870368 18.1002 0.796295 17.9138 0.796304C17.7273 0.796312 17.5484 0.870402 17.4166 1.00227C17.2847 1.13415 17.2106 1.313 17.2106 1.49948C17.2107 1.68597 17.2847 1.86481 17.4166 1.99667L19.339 3.9191ZM29.1638 4.125C29.2561 4.12511 29.3476 4.10697 29.4329 4.07164C29.5183 4.0363 29.5958 3.98447 29.661 3.9191L31.5834 1.99667C31.7152 1.86477 31.7891 1.68596 31.7891 1.49954C31.789 1.31312 31.715 1.13435 31.5831 1.00253C31.4513 0.870711 31.2725 0.79663 31.0861 0.796574C30.8997 0.796517 30.7209 0.870489 30.589 1.00223L28.6666 2.92465C28.5682 3.02299 28.5012 3.14828 28.4741 3.28468C28.447 3.42108 28.4609 3.56247 28.5141 3.69096C28.5673 3.81945 28.6575 3.92927 28.7731 4.00653C28.8888 4.08379 29.0247 4.12502 29.1638 4.125ZM24.5 4.125C24.5923 4.12501 24.6838 4.10683 24.7691 4.07149C24.8544 4.03616 24.9319 3.98437 24.9972 3.91908C25.0625 3.85378 25.1143 3.77627 25.1496 3.69096C25.185 3.60565 25.2031 3.51421 25.2031 3.42188V0.703125C25.2031 0.516645 25.129 0.337802 24.9972 0.205941C24.8653 0.074079 24.6865 0 24.5 0C24.3135 0 24.1347 0.074079 24.0028 0.205941C23.871 0.337802 23.7969 0.516645 23.7969 0.703125V3.42188C23.7969 3.51421 23.8151 3.60564 23.8504 3.69095C23.8857 3.77626 23.9375 3.85377 24.0028 3.91907C24.0681 3.98436 24.1456 4.03615 24.2309 4.07148C24.3162 4.10682 24.4077 4.125 24.5 4.125ZM45.8079 16.875H31.8143C32.3551 15.6567 32.583 14.3225 32.4773 12.9937C32.3716 11.6649 31.9356 10.3836 31.209 9.2661C30.4824 8.14857 29.4881 7.23026 28.3165 6.59455C27.1449 5.95884 25.833 5.62586 24.5 5.62586C23.167 5.62586 21.8552 5.95884 20.6835 6.59455C19.5119 7.23026 18.5176 8.14857 17.791 9.2661C17.0644 10.3836 16.6284 11.6649 16.5227 12.9937C16.417 14.3225 16.6449 15.6567 17.1857 16.875H3.19211C2.47836 16.8758 1.79408 17.1597 1.28939 17.6644C0.784697 18.1691 0.500806 18.8534 0.5 19.5671V19.6204C0.500806 20.3341 0.784697 21.0184 1.28939 21.5231C1.79408 22.0278 2.47836 22.3117 3.19211 22.3125H3.3125V44.4844C3.31355 45.4165 3.68428 46.3101 4.34336 46.9691C5.00244 47.6282 5.89605 47.999 6.82812 48H42.1719C43.104 47.999 43.9976 47.6282 44.6566 46.9691C45.3157 46.3101 45.6865 45.4165 45.6875 44.4844V22.3125H45.8079C46.5216 22.3117 47.2059 22.0278 47.7106 21.5231C48.2153 21.0184 48.4992 20.3341 48.5 19.6204V19.5671C48.4992 18.8534 48.2153 18.1691 47.7106 17.6644C47.2059 17.1597 46.5216 16.8758 45.8079 16.875ZM44.2812 44.4844C44.2806 45.0436 44.0582 45.5798 43.6627 45.9752C43.2673 46.3707 42.7311 46.5931 42.1719 46.5938H6.82812C6.26888 46.5931 5.73272 46.3707 5.33727 45.9752C4.94182 45.5798 4.71938 45.0436 4.71875 44.4844V22.3125H44.2812V44.4844ZM47.0938 19.6204C47.0934 19.9613 46.9577 20.2881 46.7167 20.5292C46.4756 20.7702 46.1488 20.9059 45.8079 20.9062H3.19211C2.8512 20.9059 2.52436 20.7703 2.2833 20.5292C2.04224 20.2881 1.90664 19.9613 1.90625 19.6204V19.5671C1.90664 19.2262 2.04224 18.8994 2.2833 18.6583C2.52436 18.4172 2.8512 18.2816 3.19211 18.2812H30.6368L30.6382 18.2813L30.6396 18.2812H45.8079C46.1488 18.2816 46.4756 18.4173 46.7167 18.6583C46.9577 18.8994 47.0934 19.2262 47.0938 19.5671V19.6204ZM30.6358 34.4531H18.3642C18.1777 34.4531 17.9989 34.5272 17.867 34.6591C17.7352 34.7909 17.6611 34.9698 17.6611 35.1562C17.6611 35.3427 17.7352 35.5216 17.867 35.6534C17.9989 35.7853 18.1777 35.8594 18.3642 35.8594H30.6358C30.8223 35.8594 31.0011 35.7853 31.133 35.6534C31.2648 35.5216 31.3389 35.3427 31.3389 35.1562C31.3389 34.9698 31.2648 34.7909 31.133 34.6591C31.0011 34.5272 30.8223 34.4531 30.6358 34.4531ZM14.1406 28.8281H34.8594C35.4188 28.8281 35.9553 28.6059 36.3509 28.2103C36.7465 27.8147 36.9688 27.2782 36.9688 26.7188C36.9688 26.1593 36.7465 25.6228 36.3509 25.2272C35.9553 24.8316 35.4188 24.6094 34.8594 24.6094H14.1406C13.5812 24.6094 13.0447 24.8316 12.6491 25.2272C12.2535 25.6228 12.0313 26.1593 12.0312 26.7188C12.0313 27.2782 12.2535 27.8147 12.6491 28.2103C13.0447 28.6059 13.5812 28.8281 14.1406 28.8281ZM14.1406 26.0156H34.8594C35.0459 26.0156 35.2247 26.0897 35.3566 26.2216C35.4884 26.3534 35.5625 26.5323 35.5625 26.7188C35.5625 26.9052 35.4884 27.0841 35.3566 27.2159C35.2247 27.3478 35.0459 27.4219 34.8594 27.4219H14.1406C13.9541 27.4219 13.7753 27.3478 13.6434 27.2159C13.5116 27.0841 13.4375 26.9052 13.4375 26.7188C13.4375 26.5323 13.5116 26.3534 13.6434 26.2216C13.7753 26.0897 13.9541 26.0156 14.1406 26.0156Z" fill="#454545"/>
<path id="Vector_2" d="M18.3643 37.4531H30.6358C30.8223 37.4531 31.0011 37.5272 31.133 37.6591C31.2648 37.7909 31.3389 37.9698 31.3389 38.1562C31.3389 38.3427 31.2648 38.5216 31.133 38.6534C31.0011 38.7853 30.8223 38.8594 30.6358 38.8594H18.3643C18.1778 38.8594 17.9989 38.7853 17.8671 38.6534C17.7352 38.5216 17.6611 38.3427 17.6611 38.1562C17.6611 37.9698 17.7352 37.7909 17.8671 37.6591C17.9989 37.5272 18.1778 37.4531 18.3643 37.4531Z" fill="#454545"/>
</g>
<defs>
<clipPath id="clip0_2037_431">
<rect width="48" height="48" fill="white" transform="translate(0.5)"/>
</clipPath>
</defs>
</svg>
