<svg width="49" height="48" viewBox="0 0 49 48" fill="none" xmlns="http://www.w3.org/2000/svg">
<g id="Component 1/variant20" clip-path="url(#clip0_2014_2825)">
<path id="Vector" d="M48.5 24C48.5 10.746 37.754 0 24.5 0C11.246 0 0.5 10.746 0.5 24C0.5 35.98 9.276 45.908 20.75 47.708V30.938H14.656V23.998H20.75V18.714C20.75 12.7 24.334 9.376 29.816 9.376C32.44 9.376 35.188 9.846 35.188 9.846V15.752H32.16C29.178 15.752 28.248 17.602 28.248 19.5V24H34.904L33.84 30.94H28.248V47.71C39.724 45.908 48.5 35.978 48.5 24Z" fill="#3B5998"/>
</g>
<defs>
<clipPath id="clip0_2014_2825">
<rect width="48" height="48" fill="white" transform="translate(0.5)"/>
</clipPath>
</defs>
</svg>
