<svg width="44" height="49" viewBox="0 0 44 49" fill="none" xmlns="http://www.w3.org/2000/svg">
<path d="M41.274 24.9286C41.274 23.2114 41.1438 21.9582 40.8619 20.6587H22.5364V28.4095H33.2931C33.0763 30.3356 31.9052 33.2364 29.3027 35.1856L29.2662 35.4451L35.0604 40.2482L35.4618 40.2911C39.1486 36.6477 41.274 31.287 41.274 24.9286Z" fill="#4285F4"/>
<path d="M22.5352 45.3502C27.8051 45.3502 32.2291 43.4936 35.4606 40.2912L29.3015 35.1857C27.6533 36.4157 25.4412 37.2743 22.5352 37.2743C17.3737 37.2743 12.993 33.631 11.4314 28.5952L11.2025 28.616L5.17764 33.6054L5.09885 33.8398C8.30848 40.6624 14.9013 45.3502 22.5352 45.3502Z" fill="#34A853"/>
<path d="M11.4325 28.5953C11.0205 27.2958 10.782 25.9033 10.782 24.4646C10.782 23.0258 11.0205 21.6335 11.4109 20.3339L11.3999 20.0572L5.29956 14.9877L5.09997 15.0893C3.77712 17.9204 3.01807 21.0998 3.01807 24.4646C3.01807 27.8295 3.77712 31.0087 5.09997 33.8399L11.4325 28.5953Z" fill="#FBBC05"/>
<path d="M22.5353 11.6549C26.2004 11.6549 28.6726 13.3489 30.0824 14.7646L35.5908 9.0094C32.2078 5.64452 27.8052 3.57916 22.5353 3.57916C14.9014 3.57916 8.3085 8.26677 5.09885 15.0893L11.4098 20.334C12.9931 15.2983 17.3738 11.6549 22.5353 11.6549Z" fill="#EB4335"/>
</svg>
