<svg width="49" height="48" viewBox="0 0 49 48" fill="none" xmlns="http://www.w3.org/2000/svg">
<path id="Vector" d="M24.5 0C17.98 0 17.166 0.03 14.606 0.144C12.05 0.264 10.31 0.666 8.78 1.26C7.202 1.872 5.862 2.694 4.528 4.028C3.194 5.362 2.37 6.7 1.76 8.28C1.166 9.81 0.762 11.55 0.644 14.106C0.524 16.666 0.5 17.48 0.5 24C0.5 30.52 0.53 31.334 0.644 33.894C0.764 36.448 1.166 38.19 1.76 39.72C2.372 41.296 3.194 42.638 4.528 43.972C5.862 45.304 7.2 46.13 8.78 46.74C10.312 47.332 12.052 47.738 14.606 47.856C17.166 47.976 17.98 48 24.5 48C31.02 48 31.834 47.97 34.394 47.856C36.948 47.736 38.69 47.332 40.22 46.74C41.796 46.128 43.138 45.304 44.472 43.972C45.804 42.638 46.63 41.302 47.24 39.72C47.832 38.19 48.238 36.448 48.356 33.894C48.476 31.334 48.5 30.52 48.5 24C48.5 17.48 48.47 16.666 48.356 14.106C48.236 11.552 47.832 9.808 47.24 8.28C46.628 6.702 45.804 5.362 44.472 4.028C43.138 2.694 41.802 1.87 40.22 1.26C38.69 0.666 36.948 0.262 34.394 0.144C31.834 0.024 31.02 0 24.5 0ZM24.5 4.32C30.906 4.32 31.67 4.352 34.2 4.462C36.54 4.572 37.81 4.96 38.654 5.292C39.778 5.726 40.574 6.246 41.418 7.084C42.256 7.924 42.776 8.722 43.21 9.846C43.538 10.69 43.93 11.96 44.036 14.3C44.15 16.832 44.176 17.592 44.176 24C44.176 30.408 44.146 31.17 44.028 33.7C43.906 36.04 43.516 37.31 43.186 38.154C42.738 39.278 42.228 40.074 41.388 40.918C40.55 41.756 39.74 42.276 38.628 42.71C37.788 43.038 36.498 43.43 34.158 43.536C31.61 43.65 30.86 43.676 24.44 43.676C18.018 43.676 17.268 43.646 14.722 43.528C12.38 43.406 11.09 43.016 10.25 42.686C9.112 42.238 8.33 41.728 7.492 40.888C6.65 40.05 6.112 39.24 5.692 38.128C5.362 37.288 4.974 35.998 4.852 33.658C4.762 31.138 4.73 30.36 4.73 23.97C4.73 17.578 4.762 16.798 4.852 14.248C4.974 11.908 5.362 10.62 5.692 9.78C6.112 8.64 6.65 7.86 7.492 7.018C8.33 6.18 9.112 5.64 10.25 5.222C11.09 4.89 12.352 4.5 14.692 4.38C17.242 4.29 17.992 4.26 24.41 4.26L24.5 4.32ZM24.5 11.676C17.69 11.676 12.176 17.196 12.176 24C12.176 30.81 17.696 36.324 24.5 36.324C31.31 36.324 36.824 30.804 36.824 24C36.824 17.19 31.304 11.676 24.5 11.676ZM24.5 32C20.08 32 16.5 28.42 16.5 24C16.5 19.58 20.08 16 24.5 16C28.92 16 32.5 19.58 32.5 24C32.5 28.42 28.92 32 24.5 32ZM40.192 11.19C40.192 12.78 38.9 14.07 37.312 14.07C35.722 14.07 34.432 12.778 34.432 11.19C34.432 9.602 35.724 8.312 37.312 8.312C38.898 8.31 40.192 9.602 40.192 11.19Z" fill="white"/>
</svg>
