<svg width="20" height="19" viewBox="0 0 20 19" fill="none" xmlns="http://www.w3.org/2000/svg">
<g id="Mask group">
<mask id="mask0_2398_454" style="mask-type:luminance" maskUnits="userSpaceOnUse" x="0" y="0" width="20" height="19">
<g id="Group">
<path id="Vector" fill-rule="evenodd" clip-rule="evenodd" d="M0 0H20V18.3333H0V0Z" fill="white"/>
</g>
</mask>
<g mask="url(#mask0_2398_454)">
<g id="Group_2">
<path id="Vector_2" fill-rule="evenodd" clip-rule="evenodd" d="M16.7607 10.4142C16.7358 10.4142 16.7109 10.413 16.686 10.4104C16.5094 10.3924 16.4099 10.2823 16.2254 10.0349L14.9688 8.33453L14.625 8.68249V9.9608C14.625 10.2194 14.4194 10.4144 14.1469 10.4144C13.8606 10.4144 13.6681 10.232 13.6681 9.9608V6.03069C13.6681 5.75975 13.8695 5.563 14.1469 5.563C14.4328 5.563 14.625 5.75098 14.625 6.03069V7.5523L16.3097 5.809C16.385 5.73517 16.5076 5.6355 16.6902 5.6355C16.9214 5.64163 17.1539 5.79409 17.1478 6.07331C17.1478 6.2039 17.0691 6.29006 16.9124 6.46174C16.8769 6.50054 16.8378 6.5433 16.7954 6.59143L15.6439 7.7446L17.0061 9.5149C17.1469 9.6972 17.2635 9.848 17.238 10.0416C17.2007 10.3874 16.8632 10.4142 16.7607 10.4142ZM12.7985 10.3612H11.0156C10.7024 10.3612 10.5154 10.1647 10.5154 9.8357V6.05883C10.5154 5.75307 10.6988 5.563 10.994 5.563C11.2889 5.563 11.4721 5.75307 11.4721 6.05883V9.4972H12.7985C12.9417 9.4972 13.0608 9.5429 13.1429 9.6294C13.2215 9.712 13.2626 9.8277 13.2556 9.9467C13.2497 10.1485 13.0876 10.3612 12.7985 10.3612ZM9.11352 10.0849L8.90441 9.4356H6.90575L6.69138 10.0776C6.61657 10.3076 6.47048 10.4147 6.23141 10.4147C5.9675 10.4147 5.76063 10.2219 5.76063 9.9757C5.76063 9.8782 5.7901 9.8032 5.80435 9.7673L7.19281 6.11664C7.29232 5.84904 7.53132 5.56342 7.90427 5.56342C8.23204 5.56342 8.49174 5.76463 8.61678 6.11545L9.96251 9.7604C10.0052 9.8747 10.0167 9.9676 10.0167 10.0043C10.0167 10.2344 9.82491 10.4147 9.58029 10.4147C9.34024 10.4147 9.18762 10.3069 9.11352 10.0849ZM4.95214 9.9176C4.95214 10.2239 4.76878 10.4144 4.47364 10.4144C4.17886 10.4144 3.99557 10.2239 3.99557 9.9176V6.46968H2.9894C2.67377 6.46968 2.56185 6.23734 2.56185 6.03828C2.56185 5.82864 2.71166 5.60569 2.9894 5.60569H5.95754C6.23584 5.60569 6.38614 5.82864 6.38614 6.03828C6.38614 6.23734 6.27387 6.46968 5.95754 6.46968H4.95214V9.9176ZM0 7.84154C0 10.6258 1.85138 13.0715 4.64115 14.4627L3.69869 17.9574C3.66374 18.061 3.69013 18.1734 3.76738 18.2501C3.8231 18.3054 3.89664 18.3334 3.97011 18.3334C4.03284 18.3334 4.09536 18.3135 4.14799 18.2723L8.20209 15.5562C8.78528 15.639 9.38629 15.6828 10 15.6828C15.5228 15.6828 20 12.1724 20 7.84154C20 3.51099 15.5228 0 10 0C4.4773 0 0 3.51099 0 7.84154Z" fill="#444444"/>
</g>
</g>
</g>
</svg>
