<svg width="49" height="44" viewBox="0 0 49 44" fill="none" xmlns="http://www.w3.org/2000/svg">
<g id="Clip path group">
<mask id="mask0_2385_307" style="mask-type:luminance" maskUnits="userSpaceOnUse" x="0" y="0" width="49" height="44">
<g id="a">
<path id="Vector" d="M48.5 0H0.5V43.3548H48.5V0Z" fill="white"/>
</g>
</mask>
<g mask="url(#mask0_2385_307)">
<g id="Group">
<path id="Vector_2" d="M10.9755 15.998C10.0634 15.998 9.32422 16.7179 9.32422 17.6061C9.32422 18.4944 10.0634 19.2174 10.9755 19.2174C11.8877 19.2174 12.6268 18.4976 12.6268 17.6061C12.6268 16.7146 11.8877 15.998 10.9755 15.998Z" fill="#2DB400"/>
<path id="Vector_3" d="M27.2995 15.8297C26.3163 15.8297 25.5195 16.6057 25.5195 17.5632C25.5195 18.5209 26.3163 19.2969 27.2995 19.2969C28.2829 19.2969 29.0797 18.5209 29.0797 17.5632C29.0797 16.6057 28.2829 15.8297 27.2995 15.8297Z" fill="#2DB400"/>
<path id="Vector_4" d="M42.0812 0H6.92216C3.37538 0 0.5 2.80006 0.5 6.25392V26.5742C0.5 30.0282 3.37538 32.8282 6.92216 32.8282H19.3392L23.5642 42.5194C23.5642 42.5194 23.8558 43.3582 24.5576 43.3582C25.263 43.3582 25.5512 42.5194 25.5512 42.5194L29.776 32.8282H42.0812C45.628 32.8282 48.5034 30.0282 48.5034 26.5742V6.25392C48.5034 2.80006 45.628 0 42.0812 0ZM15.5788 17.9627C15.5585 21.6774 11.615 21.783 11.615 21.783C10.0891 21.783 9.22788 20.799 9.22788 20.799V21.4694H6.3559V9.93232C6.3559 9.93232 6.34232 9.92902 6.3559 9.92572V9.93232C6.5356 9.95874 9.22788 9.92572 9.22788 9.92572V14.3371C9.90266 13.2145 11.8558 13.2343 11.8558 13.2343C16.1078 13.6206 15.5754 17.9627 15.5754 17.9627H15.5788ZM20.6346 13.5909V21.4892H17.8235V13.6701C17.8235 12.6069 16.4672 12.3097 16.4672 12.3097V9.5526C20.9566 9.7309 20.6346 13.5909 20.6346 13.5909ZM27.2974 21.7896C24.6932 21.7896 22.5842 19.8976 22.5842 17.5665C22.5842 15.2353 24.6932 13.3433 27.2974 13.3433C29.9016 13.3433 32.0106 15.2353 32.0106 17.5665C32.0106 19.8976 29.9016 21.7896 27.2974 21.7896ZM42.6984 21.7896C42.6984 21.7896 42.739 25.8016 38.5514 25.8016H37.2764V23.203H38.0462C38.0462 23.203 39.806 23.3614 39.7856 20.7198C39.7856 20.7198 39.4432 21.7896 36.9748 21.7896C36.9748 21.7896 33.4754 21.5454 33.4754 18.2202V16.9589C33.4754 16.9589 33.5568 13.5117 37.3986 13.2376C37.3986 13.2376 38.9142 13.0791 39.8468 14.3008V13.4555H42.6984V21.793V21.7896Z" fill="#2DB400"/>
<path id="Vector_5" d="M38.2316 15.8693C37.272 15.8693 36.4922 16.6287 36.4922 17.5632C36.4922 18.4976 37.272 19.257 38.2316 19.257C39.1912 19.257 39.9712 18.4976 39.9712 17.5632C39.9712 16.6287 39.1912 15.8693 38.2316 15.8693Z" fill="#2DB400"/>
</g>
</g>
</g>
</svg>
