<svg width="20" height="20" viewBox="0 0 20 20" fill="none" xmlns="http://www.w3.org/2000/svg">
<g id="Component 1">
<path id="Vector" d="M18 18.02L12.718 12.737M14.444 8.22301C14.444 9.04009 14.2831 9.84918 13.9704 10.6041C13.6577 11.359 13.1994 12.0449 12.6216 12.6226C12.0439 13.2004 11.3579 13.6587 10.6031 13.9714C9.84817 14.2841 9.03908 14.445 8.222 14.445C7.40492 14.445 6.59583 14.2841 5.84094 13.9714C5.08606 13.6587 4.40015 13.2004 3.82238 12.6226C3.24462 12.0449 2.78631 11.359 2.47362 10.6041C2.16094 9.84918 2 9.04009 2 8.22301C2 6.57283 2.65553 4.99024 3.82238 3.82339C4.98923 2.65654 6.57182 2.00101 8.222 2.00101C9.87218 2.00101 11.4548 2.65654 12.6216 3.82339C13.7885 4.99024 14.444 6.57283 14.444 8.22301Z" stroke="black" stroke-width="1.5" stroke-linecap="round"/>
</g>
</svg>
