<svg width="17" height="16" viewBox="0 0 17 16" fill="none" xmlns="http://www.w3.org/2000/svg">
<g id="SVG">
<g id="Group">
<path id="Vector" d="M6.03075 4.83997V6.03997H4.06035C3.80646 6.03993 3.56207 6.13646 3.37673 6.30998C3.1914 6.4835 3.07901 6.72103 3.06235 6.97437L3.06035 7.03997V13.76C3.06031 14.0139 3.15684 14.2583 3.33037 14.4436C3.50389 14.6289 3.74141 14.7413 3.99475 14.758L4.06035 14.76H12.4604C12.7142 14.76 12.9586 14.6635 13.144 14.49C13.3293 14.3164 13.4417 14.0789 13.4584 13.8256L13.4604 13.76V6.96557C13.4604 6.73106 13.3714 6.50528 13.2114 6.33383C13.0514 6.16239 12.8323 6.05808 12.5984 6.04197L12.5348 6.03997H10.4096V4.83997H12.5348C13.0833 4.83991 13.6106 5.05192 14.0065 5.43167C14.4023 5.81141 14.636 6.32949 14.6588 6.87757L14.6604 6.96557V13.76C14.6604 14.3282 14.4406 14.8744 14.047 15.2841C13.6534 15.6939 13.1165 15.9355 12.5488 15.9584L12.4604 15.96H4.06035C3.49215 15.96 2.94597 15.7402 2.53618 15.3466C2.12639 14.953 1.88478 14.4161 1.86195 13.8484L1.86035 13.76V7.03997C1.86031 6.47176 2.0801 5.92558 2.47371 5.51579C2.86732 5.106 3.40421 4.8644 3.97195 4.84157L4.06035 4.83997H6.03075Z" fill="#202020"/>
<path id="Vector_2" d="M8.22012 0.599976C8.36927 0.599983 8.51307 0.655543 8.62348 0.755823C8.7339 0.856103 8.803 0.993911 8.81732 1.14238L8.82012 1.19998V9.99998C8.82004 10.1541 8.76069 10.3022 8.65435 10.4137C8.54802 10.5252 8.40286 10.5916 8.24895 10.599C8.09504 10.6064 7.94418 10.5543 7.82764 10.4535C7.71109 10.3527 7.63779 10.2109 7.62292 10.0576L7.62012 9.99998V1.19998C7.62012 1.04085 7.68333 0.888233 7.79585 0.775712C7.90838 0.66319 8.06099 0.599976 8.22012 0.599976Z" fill="#202020"/>
<path id="Vector_3" d="M7.82906 0.206389C7.93333 0.106618 8.07008 0.0477757 8.21422 0.0406494C8.35836 0.0335231 8.50025 0.0785902 8.61386 0.167589L8.65866 0.206789L11.1587 2.60119C11.2691 2.70769 11.3346 2.85247 11.3416 3.00576C11.3486 3.15905 11.2966 3.30919 11.1963 3.42532C11.096 3.54144 10.955 3.61473 10.8023 3.63011C10.6497 3.64549 10.4969 3.60178 10.3755 3.50799L10.3291 3.46799L8.24346 1.47039L6.15506 3.46799C6.0477 3.57073 5.90605 3.62997 5.75752 3.63426C5.60899 3.63854 5.46415 3.58756 5.35106 3.49119L5.30666 3.44919C5.20392 3.34184 5.14467 3.20018 5.14039 3.05165C5.1361 2.90312 5.18708 2.75829 5.28346 2.64519L5.32546 2.60079L7.82906 0.206389Z" fill="#202020"/>
</g>
</g>
</svg>
