<svg width="49" height="48" viewBox="0 0 49 48" fill="none" xmlns="http://www.w3.org/2000/svg">
<g id="Component 1/variant19" clip-path="url(#clip0_2014_2828)">
<path id="Vector" d="M47.496 13.282C47.2248 12.2606 46.69 11.3283 45.9452 10.5785C45.2004 9.82878 44.2716 9.28788 43.252 9.01C39.51 8 24.5 8 24.5 8C24.5 8 9.49 8 5.746 9.01C4.72682 9.28838 3.79858 9.82946 3.05416 10.5792C2.30972 11.3289 1.77518 12.2609 1.504 13.282C0.5 17.05 0.5 24.91 0.5 24.91C0.5 24.91 0.5 32.77 1.504 36.538C1.77517 37.5594 2.30995 38.4918 3.05478 39.2414C3.79962 39.9912 4.72836 40.5322 5.748 40.81C9.49 41.82 24.5 41.82 24.5 41.82C24.5 41.82 39.51 41.82 43.254 40.81C44.2738 40.5324 45.2026 39.9914 45.9474 39.2416C46.6922 38.492 47.227 37.5596 47.498 36.538C48.5 32.77 48.5 24.91 48.5 24.91C48.5 24.91 48.5 17.05 47.496 13.282ZM19.59 32.046V17.774L32.136 24.91L19.59 32.046Z" fill="#C4302B"/>
</g>
<defs>
<clipPath id="clip0_2014_2828">
<rect width="48" height="48" fill="white" transform="translate(0.5)"/>
</clipPath>
</defs>
</svg>
